<svg id="Layer_1" data-name="Layer 1" xmlns="http://www.w3.org/2000/svg" viewBox="0 0 142.67 142.5"><defs><style>.cls-1{fill:#231f20;}.cls-2{fill:#ea8024;}</style></defs><title>TCH</title><path class="cls-1" d="M16.77,43.86a0.71,0.71,0,0,1-.83.63H11.35v21.2a0.72,0.72,0,0,1-.79.67H6.25a0.7,0.7,0,0,1-.79-0.67V44.49H0.83A0.74,0.74,0,0,1,0,43.86v-4a0.79,0.79,0,0,1,.83-0.71H15.94a0.77,0.77,0,0,1,.83.71v4Z"/><path class="cls-1" d="M41.2,39.19a0.74,0.74,0,0,1,.79.67V65.73a0.78,0.78,0,0,1-.79.67H36.88a0.79,0.79,0,0,1-.82-0.67V55.35H27V65.73a0.79,0.79,0,0,1-.83.67H21.93a0.79,0.79,0,0,1-.83-0.67V39.86a0.76,0.76,0,0,1,.83-0.67h4.29a0.76,0.76,0,0,1,.83.67v9.95h9V39.86a0.76,0.76,0,0,1,.82-0.67H41.2Z"/><path class="cls-1" d="M53.67,44.72V50.1h9.86a0.7,0.7,0,0,1,.78.67V54.9a0.72,0.72,0,0,1-.78.67H53.67v5.3h12a0.77,0.77,0,0,1,.86.67v4.16a0.8,0.8,0,0,1-.86.67H48.57a0.74,0.74,0,0,1-.78-0.67V39.86a0.72,0.72,0,0,1,.78-0.67H65.65a0.77,0.77,0,0,1,.86.67v4.2a0.8,0.8,0,0,1-.86.67h-12Z"/><path class="cls-1" d="M19.38,96.6a1,1,0,0,1,1.2.12l3,3a1.15,1.15,0,0,1,0,1,14.4,14.4,0,0,1-9.73,4C6.19,104.66,0,99.21,0,90.64c0-8.21,5.76-14,13.81-14a14.24,14.24,0,0,1,9.73,4,1,1,0,0,1-.08,1.05l-3,3a0.88,0.88,0,0,1-1.05,0,7.84,7.84,0,0,0-5.56-2.37C8.95,82.32,6,85.86,6,90.64,6,95.78,9.53,99,13.81,99a7.85,7.85,0,0,0,5.56-2.37"/><path class="cls-1" d="M33.3,87.06a4.52,4.52,0,1,0,9,0,4.52,4.52,0,1,0-9,0m13.85,16.74a0.8,0.8,0,0,1-.86.67H29.16a0.76,0.76,0,0,1-.82-0.67V99.5a0.76,0.76,0,0,1,.82-0.7H46.29a0.8,0.8,0,0,1,.86.7v4.3ZM27.32,87.06A10.51,10.51,0,1,1,37.84,97.27,10.46,10.46,0,0,1,27.32,87.06"/><path class="cls-1" d="M33.3,125a4.52,4.52,0,1,0,9,0,4.52,4.52,0,1,0-9,0m13.85,16.75a0.8,0.8,0,0,1-.86.67H29.16a0.76,0.76,0,0,1-.82-0.67v-4.3a0.76,0.76,0,0,1,.82-0.7H46.29a0.8,0.8,0,0,1,.86.7v4.3ZM27.32,125a10.51,10.51,0,1,1,10.53,10.21A10.46,10.46,0,0,1,27.32,125"/><path class="cls-1" d="M59.12,82.86v5.24h10a0.75,0.75,0,0,1,.78.7V93a0.75,0.75,0,0,1-.78.7h-10v10.16a0.75,0.75,0,0,1-.82.66H54a0.76,0.76,0,0,1-.82-0.66v-26a0.76,0.76,0,0,1,.82-0.7H71.27a0.8,0.8,0,0,1,.86.7v4.3a0.8,0.8,0,0,1-.86.7H59.12Z"/><path class="cls-1" d="M82.79,82.86v5.24h10a0.75,0.75,0,0,1,.78.7V93a0.75,0.75,0,0,1-.78.7h-10v10.16a0.76,0.76,0,0,1-.82.66H77.63a0.76,0.76,0,0,1-.82-0.66v-26a0.76,0.76,0,0,1,.82-0.7H94.94a0.8,0.8,0,0,1,.86.7v4.3a0.8,0.8,0,0,1-.86.7H82.79Z"/><path class="cls-1" d="M106.35,82.74V88h10a0.74,0.74,0,0,1,.78.7V92.9a0.74,0.74,0,0,1-.78.66h-10V98.8H118.5a0.8,0.8,0,0,1,.86.7v4.34a0.8,0.8,0,0,1-.86.66H101.19a0.76,0.76,0,0,1-.82-0.66v-26a0.76,0.76,0,0,1,.82-0.7h17a0.78,0.78,0,0,1,.82.7V82a0.78,0.78,0,0,1-.82.71H106.35Z"/><path class="cls-1" d="M129.66,82.74V88h10a0.75,0.75,0,0,1,.78.7V92.9a0.75,0.75,0,0,1-.78.66h-10V98.8h12.15a0.8,0.8,0,0,1,.86.7v4.34a0.8,0.8,0,0,1-.86.66H124.5a0.76,0.76,0,0,1-.82-0.66v-26a0.76,0.76,0,0,1,.82-0.7h17a0.79,0.79,0,0,1,.82.7V82a0.79,0.79,0,0,1-.82.71H129.66Z"/><path class="cls-1" d="M20.24,115.26a0.79,0.79,0,0,1,.86.7v25.88a0.8,0.8,0,0,1-.86.66H15.92a0.78,0.78,0,0,1-.82-0.66V131.72H6v10.12a0.8,0.8,0,0,1-.86.66H0.82A0.78,0.78,0,0,1,0,141.83V116a0.78,0.78,0,0,1,.82-0.7H5.14A0.79,0.79,0,0,1,6,116v10H15.1V116a0.78,0.78,0,0,1,.82-0.7h4.32Z"/><path class="cls-1" d="M53.6,133.31V116.08a0.78,0.78,0,0,1,.82-0.7h4.24a0.78,0.78,0,0,1,.82.7v17.16a4.34,4.34,0,0,0,4.47,3.66c2.22,0,4.44-1.17,4.44-3.58V116.08a0.78,0.78,0,0,1,.82-0.7h4.28a0.77,0.77,0,0,1,.78.7v17.24c0,5.8-4.47,9.18-10.31,9.18S53.6,139,53.6,133.31"/><path class="cls-1" d="M78.57,134.33a0.78,0.78,0,0,1,.81-0.69h4.3a0.8,0.8,0,0,1,.81.69,2.69,2.69,0,0,0,2.94,2.52,2.74,2.74,0,0,0,2.94-2.64,3.1,3.1,0,0,0-2.94-2.9,10.74,10.74,0,0,1-4.22-.93,7.61,7.61,0,0,1-4.65-7.2c0-5.31,4.34-8.56,8.86-8.56,4.88,0,8.71,3.29,8.79,8.09a0.82,0.82,0,0,1-.85.66H91.15a0.89,0.89,0,0,1-.85-0.66,2.58,2.58,0,0,0-2.86-2.44,2.75,2.75,0,0,0-2.94,2.91,2.68,2.68,0,0,0,2.94,2.59,10.52,10.52,0,0,1,4.18.93,7.89,7.89,0,0,1,4.68,7.51c0,5.31-4.3,8.29-8.86,8.29-4.92-.12-8.79-3-8.86-8.17"/><path class="cls-1" d="M106.32,120.83V126h10a0.74,0.74,0,0,1,.78.7v4.2a0.74,0.74,0,0,1-.78.66h-10v5.21h12.1a0.79,0.79,0,0,1,.86.7v4.32a0.79,0.79,0,0,1-.86.66H101.18a0.75,0.75,0,0,1-.82-0.66V116a0.75,0.75,0,0,1,.82-0.7H118.1a0.78,0.78,0,0,1,.82.7v4.16a0.78,0.78,0,0,1-.82.7H106.32Z"/><path class="cls-2" d="M8.89,20.27h4.73l-1.38-4.1a30.06,30.06,0,0,1-.95-3.82,27.89,27.89,0,0,1-1,3.82ZM15.2,25H7.32l-1,2.72v0a0.83,0.83,0,0,1-.83.47H0.81a0.68,0.68,0,0,1-.75-0.95C3.45,18.57,7.12,9.11,10.51.44A0.89,0.89,0,0,1,12,.44l10.44,26.8a0.68,0.68,0,0,1-.71.95H17a0.79,0.79,0,0,1-.75-0.47v0Z"/><path class="cls-2" d="M39.79,5.29a0.81,0.81,0,0,1-.87.67H34.27V27.52a0.81,0.81,0,0,1-.87.67H29.07a0.79,0.79,0,0,1-.83-0.67V6H23.55a0.79,0.79,0,0,1-.83-0.67v-4A0.79,0.79,0,0,1,23.55.6H38.92a0.81,0.81,0,0,1,.87.71v4Z"/></svg>